<?xml version="1.0" encoding="utf-8"?>
<!-- Generator: Adobe Illustrator 17.0.0, SVG Export Plug-In . SVG Version: 6.00 Build 0)  -->
<!DOCTYPE svg PUBLIC "-//W3C//DTD SVG 1.1//EN" "http://www.w3.org/Graphics/SVG/1.1/DTD/svg11.dtd">
<svg version="1.1" id="Layer_1" xmlns="http://www.w3.org/2000/svg" xmlns:xlink="http://www.w3.org/1999/xlink" x="0px" y="0px"
	 width="207px" height="193px" viewBox="0 0 207 193" enable-background="new 0 0 207 193" xml:space="preserve">
<rect x="0" fill="#99262C" width="207" height="193"/>
<g>
	<path fill="#FFFFFF" d="M59.9,154.3c0,3.5-2.9,5.7-5.4,5.7h-5.3c-0.8,0-1.5-0.7-1.5-1.5v-15.2c0-0.8,0.7-1.5,1.5-1.5h4.2
		c0.1,0,1.3,0.1,2.4,0.6c1.7,0.8,2.6,2.3,2.6,4.3c0,1.1-0.3,2.1-0.8,2.9C59.1,150.5,59.9,152.2,59.9,154.3z M50.7,148.6H53
		c0.4,0,2.3,0.1,2.3-1.9c0-2.1-1.9-1.9-1.9-1.9h-2.7V148.6z M56.8,154.3c0-1-0.6-2.7-2.5-2.7h-3.6v5.3h3.6
		C54.4,156.9,56.8,157.3,56.8,154.3z"/>
	<path fill="#FFFFFF" d="M75.8,158.4c0,0.8-0.6,1.5-1.5,1.5c-0.6,0-1.2-0.4-1.4-1l-1.2-2.8h-7.1l-1.2,2.8c-0.2,0.6-0.8,1-1.4,1
		c-0.9,0-1.5-0.8-1.5-1.5c0-0.2,6.2-15.7,6.2-15.7c0.2-0.6,0.8-1,1.4-1c0.6,0,1.2,0.4,1.4,1C69.6,142.7,75.8,158.3,75.8,158.4z
		 M70.5,153.1l-2.3-5.8l-2.3,5.8H70.5z"/>
	<path fill="#FFFFFF" d="M78.9,160c-0.9,0-1.5-0.7-1.5-1.5v-15.2c0-0.8,0.7-1.5,1.5-1.5c0.8,0,1.5,0.7,1.5,1.5v13.7h5.3
		c0.8,0,1.5,0.7,1.5,1.5c0,0.8-0.7,1.5-1.5,1.5H78.9z"/>
	<path fill="#FFFFFF" d="M104.1,158.4c0,0.8-0.6,1.5-1.5,1.5c-0.6,0-1.2-0.4-1.4-1l-1.2-2.8h-7.1l-1.2,2.8c-0.2,0.6-0.8,1-1.4,1
		c-0.9,0-1.5-0.8-1.5-1.5c0-0.2,6.2-15.7,6.2-15.7c0.2-0.6,0.8-1,1.4-1c0.6,0,1.2,0.4,1.4,1C97.9,142.7,104.1,158.3,104.1,158.4z
		 M98.8,153.1l-2.3-5.8l-2.3,5.8H98.8z"/>
	<path fill="#FFFFFF" d="M107.2,160c-0.8,0-1.5-0.7-1.5-1.5v-15.2c0-0.8,0.7-1.5,1.5-1.5h4.5c0.1,0,7.8,0,7.8,9.1
		c0,9.1-7.7,9.1-7.8,9.1H107.2z M108.7,156.9h2.9c0.1,0,1.3,0,2.4-0.8c1.5-1,2.3-2.8,2.3-5.3c0-2.6-0.8-4.4-2.4-5.3
		c-1.2-0.7-2.3-0.7-2.3-0.7h-2.9V156.9z"/>
	<path fill="#FFFFFF" d="M132.1,159.3l-7.9-11.2v10.4c0,0.8-0.7,1.5-1.5,1.5s-1.5-0.7-1.5-1.5v-15.2c0-0.8,0.6-1.5,1.5-1.5
		c0.5,0,0.9,0.2,1.2,0.7l7.9,11.2v-10.4c0-0.8,0.7-1.5,1.5-1.5c0.8,0,1.5,0.7,1.5,1.5v15.2c0,0.8-0.7,1.5-1.5,1.5
		C132.8,160,132.4,159.7,132.1,159.3z"/>
	<path fill="#FFFFFF" d="M152,158.4c0,0.8-0.6,1.5-1.5,1.5c-0.6,0-1.2-0.4-1.4-1l-1.2-2.8h-7.1l-1.2,2.8c-0.2,0.6-0.8,1-1.4,1
		c-0.9,0-1.5-0.8-1.5-1.5c0-0.2,6.2-15.7,6.2-15.7c0.2-0.6,0.8-1,1.4-1c0.6,0,1.2,0.4,1.4,1C145.8,142.7,152,158.3,152,158.4z
		 M146.7,153.1l-2.3-5.8l-2.3,5.8H146.7z"/>
</g>
<path fill="#F5CA92" d="M122.8,79.4l-0.5-5l-1,0v7.4L111,96.5l-1-11.1h-0.8l-0.9,14.7c0,0-1.4,1.4-2,0c-0.3,0,0-11.8,0-11.8l2-3.3
	l-9-1.3l1.9,4.9l-0.9,0.1L96,84L94,85.2l8.2,7.5l-0.1,3.4l-10.4-9.4l-1.3,0.9l12.7,17.3V126h6.3v-19.5l13.4-24.1l4.8-4.1l-1-1.5
	l-2.6,2.7L122.8,79.4z"/>
<path fill="#F8DDB9" d="M168.1,79.4c-5.8-4.2,4.8-4.2-10.3-8.7c-5.5-5.7,1.5-7.7-2.5-9.8c-4-2.2-4.5-1.8-11.7-4.8
	c-7.2-3-5.3-12-16.2-14s-7.5,7.7-15.5,6.5s-11.5-10.3-18.7-9.3c-14.2,2-6.8,15.4-36.7,12c-8,6.2,7.6,17.8-14.2,13.7
	c0,0-5.5,1.3-3.5,8c2,6.7-3.6,8.4-4,10.5c-0.8,4.5,2.7,2.7,11.2,3c0,0,1,4.8,11.7,0.8c8-3,11.9-9.3,21.7-0.7
	c7.5,6.6,15.2-2.8,17.5-2.8c7.3,0,16.1,3.6,20.3,0c6.2-5.3-17.7-17.6-5.3-19.3c7.3-1-2.1,10.8,8.8,10c0.6,0,1.1,0,1.5,0
	c7.1,0.8,6.2,11.9,11.8,11.3c6-0.7,2.9-8.7,34,4.8C176.2,93.7,173.9,83.6,168.1,79.4z M82.4,65.2v-0.6c-12-6.8-3.2-5.3,0-2.8
	S85.1,64.1,82.4,65.2z M101.3,64.4c-4.8,3.4-13.6,0.7-13.9-2.2c-0.3-2.8,3.4-0.5,7-1.2s3.5-4.7,7-3
	C104.7,59.7,102.3,63.7,101.3,64.4z"/>
<path fill="#FFFFFF" d="M152.1,147.7c0-3.4,2.7-6.1,6.1-6.1c3.2,0,5.8,2.4,6.1,5.5c0,0,0,0,0,0.1c0.7,2.4-2.9,8.5-6.6,8.9
	c-4,0.4-1.1-1.3-3.5-3.8c0,0,0,0,0,0C152.9,151.2,152.1,149.6,152.1,147.7z"/>
<g>
	<path fill="#FFFFFF" d="M91.5,126h45c0,0,2.5,0.3,2.5-1.4c0-0.1,0-29.5,0-29.5s0-4,4.6-4c4.6,0,4.6,3.1,4.6,3.1v30.9
		c0,0,0.1,1.5,2.1,1.5s2-1.6,2-1.6v-10.2c0,0,0.6-3.7,4.9-3.7c4.3,0,4.8,3.3,4.8,3.3v12.2c0,0-0.8,9.8-11.3,9.8
		c-4,0-4.4-2.3-6.6-2.3c-2.2,0-1,2.3-5.6,2.3c0.1,0-52.1,0-52.1,0c-4.1,0-3.2-2.3-4.6-2.3c-1.4,0-2.2,2.3-6.2,2.3s-5.4-1.8-5.4-5
		s3.2-5.4,6.7-5.4c-0.1,0,0-11.7,0-11.7s0.2-3.1,4.7-3.1s4.6,3.3,4.6,3.3v10c0,0,0,1.5,0.9,1.5H91.5z"/>
	<path fill="#FFFFFF" d="M71.4,99.1c0-3.4-2.7-6.1-6.1-6.1c-3.2,0-5.8,2.4-6.1,5.5c0,0,0,0,0,0.1c-0.7,2.4,2.9,8.5,6.6,8.9
		c4,0.4,1.1-1.3,3.5-3.8c0,0,0,0,0,0C70.6,102.5,71.4,100.9,71.4,99.1z"/>
	<path fill="#FFFFFF" d="M46.2,95.7V128c0,0,1.8,8.4,12,8.4c10.2,0,10.9-8.7,10.9-8.7v-13.9c0,0-0.3-3-4.9-3c-4.6,0-5,2.6-5,2.6
		v11.9c0,0-0.1,1.2-1.5,1.2c-1.4,0-1.4-1.4-1.4-1.4V95.7c0,0-0.5-4.5-5.3-4.5s-4.8,4.2-4.8,4.2"/>
</g>
</svg>
