<svg xmlns="http://www.w3.org/2000/svg" viewBox="0 0 26.87 4.4"><title>Asset 45BARWA</title><path d="M26.87.93c-1.55,1.23-4.13,2.55-9.52,0-4.61-2.15-7.29,0-7.29,0a9.34,9.34,0,0,1,7.16,1C20.36,3.56,24.76,4.36,26.87.93Z" fill="#00a3e4"/><path d="M22.53,1.83c-1.49,1.19-4,2.46-9.15,0-4.42-2.08-7-.05-7-.05a8.89,8.89,0,0,1,6.87,1C16.28,4.38,20.5,5.14,22.53,1.83Z" fill="#0067b3"/><path d="M7.37,1.68c1.49,1.19,4,2.47,9.15,0,4.42-2.08,7,0,7,0a8.84,8.84,0,0,0-6.87,1C13.62,4.23,9.4,5,7.37,1.68Z" fill="#b98748"/><path d="M0,2C1.55,3.23,4.13,4.55,9.52,2,14.13-.11,16.8,2,16.8,2A9.28,9.28,0,0,0,9.65,3C6.51,4.64,2.11,5.43,0,2Z" fill="#d9bb95"/></svg>