<svg xmlns="http://www.w3.org/2000/svg" viewBox="0 0 30 30"><title>Asset 50NAKILAT QATAR</title><rect width="30" height="30" fill="#fff"/><path d="M10.9,9.45A7.25,7.25,0,0,1,18,16.31c0-.17,0-.35,0-.52A7.26,7.26,0,0,0,10.9,8.4a7.27,7.27,0,0,0-7.14,7.39c0,.17,0,.35,0,.52A7.24,7.24,0,0,1,10.9,9.45Z" fill="#781d43"/><path d="M16.76,9.31a5.84,5.84,0,0,0-1.63.23,3.55,3.55,0,0,1,.83.66,7,7,0,0,1,.8,0,5.93,5.93,0,0,1,5.92,5.5c0-.14,0-.28,0-.42A5.93,5.93,0,0,0,16.76,9.31Z" fill="#f9b300"/><path d="M21.07,10.46l-.5,0a3.9,3.9,0,0,1,.69.65,4.86,4.86,0,0,1,4.82,4.32c0-.11,0-.22,0-.33A4.86,4.86,0,0,0,21.07,10.46Z" fill="#db1b10"/><path d="M8.18,19.3a19.24,19.24,0,0,1-6.54-1.11.46.46,0,0,1-.29-.59.47.47,0,0,1,.6-.28c6,2.13,11.57.48,14.26-.31l.78-.23a19.87,19.87,0,0,1,11.37.54.46.46,0,0,1,.29.59.47.47,0,0,1-.6.28,19,19,0,0,0-10.81-.51l-.77.22A28.57,28.57,0,0,1,8.18,19.3Z" fill="#018a53"/><path d="M8.18,21.6a19.7,19.7,0,0,1-6.65-1.12A.78.78,0,0,1,2.05,19c5.89,2.1,11.41.47,14.07-.31l.79-.23A20.26,20.26,0,0,1,28.47,19,.78.78,0,0,1,28,20.48,18.89,18.89,0,0,0,17.32,20l-.76.22A29.1,29.1,0,0,1,8.18,21.6Z" fill="#305996"/></svg>