<svg xmlns="http://www.w3.org/2000/svg" xmlns:xlink="http://www.w3.org/1999/xlink" viewBox="0 0 30 30"><defs><linearGradient id="linear-gradient" x1="17.06" y1="11.93" x2="25.33" y2="22.61" gradientUnits="userSpaceOnUse"><stop offset="0.01" stop-color="#828282"/><stop offset="0.17" stop-color="#a4a4a4"/><stop offset="0.5" stop-color="#f8f8f8"/><stop offset="0.53" stop-color="#fff"/><stop offset="0.6" stop-color="#f6f6f6"/><stop offset="0.71" stop-color="#dfdfdf"/><stop offset="0.85" stop-color="#b8b8b8"/><stop offset="1" stop-color="#898989"/></linearGradient></defs><title>Asset 27Qatari Investors Group</title><g id="Layer_2" data-name="Layer 2"><g id="Layer_1-2" data-name="Layer 1"><rect width="30" height="30" fill="#fff"/><path d="M4,7.5c1.8-2.4,5.2-3.6,9.3-3.7-5.2-.7-8.6.7-10.7,3.3S.2,14,3.8,18.4C1.8,14.6,1.8,10.2,4,7.5Z" fill="#707071"/><path d="M24.4,8.3s7.2,5.8,3.4,12.6a9.5,9.5,0,0,1-10.7,4.7L15.4,14.3Z" fill="url(#linear-gradient)"/><polygon points="21.3 2.6 18.8 1.3 15 14.5 25.6 4.4 22.6 3.1 16.1 12.7 21.3 2.6" fill="#707071"/><path d="M2.8,21.3,15,14.5,1.5,21.2c.8,1.1,3.8,4.7,11.7,6.4C6.4,25,3.7,22.2,2.8,21.3Z" fill="#747177"/><path d="M11.9,26.3a20.1,20.1,0,0,0,3.5,1L15,14.5,3.8,21.3a12.9,12.9,0,0,0,2.5,2.1l8.4-8.6L7.6,24.3l3,1.5,4.3-10.9Z" fill="#b57d46"/></g></g></svg>