<svg xmlns="http://www.w3.org/2000/svg" viewBox="0 0 30 30"><title>Asset 20الإسلامية للتأمين</title><g id="Layer_2" data-name="Layer 2"><g id="Layer_1-2" data-name="Layer 1"><rect width="30" height="30" fill="#fff"/><polygon points="17.6 6.3 12.4 6.3 9.8 10.9 12.4 15.4 17.6 15.4 20.2 10.9 17.6 6.3" fill="#015fa8"/><polygon points="15.6 9.8 14.4 9.8 13.8 10.9 14.4 11.9 15.6 11.9 16.2 10.9 15.6 9.8" fill="#fff"/><path d="M9.8,10.9a45.2,45.2,0,0,1,5.2-.2,45.2,45.2,0,0,1,5.2.2l-5.2.2Z" fill="#fff"/><path d="M12.4,15.4c.7-1.6,1.6-3.1,2.4-4.6s1.8-3,2.8-4.5C16.9,7.9,16,9.4,15.2,11S13.4,14,12.4,15.4Z" fill="#fff"/><path d="M12.4,6.3c1,1.5,1.9,3,2.8,4.5s1.7,3,2.4,4.6c-1-1.4-1.9-2.9-2.8-4.4S13.1,7.9,12.4,6.3Z" fill="#fff"/><path d="M29,9.2a18.7,18.7,0,0,0-5.2,2.3,21.9,21.9,0,0,0-4.2,3.8,20.7,20.7,0,0,0-3.1,4.8A15.5,15.5,0,0,0,15,25.7a14.5,14.5,0,0,1,1-5.8,19.3,19.3,0,0,1,7.5-8.8A13.9,13.9,0,0,1,29,9.2Z" fill="#ababab"/><path d="M1,9.2a13.9,13.9,0,0,1,5.5,1.9,20.1,20.1,0,0,1,4.4,3.8,19.9,19.9,0,0,1,3.1,5,14.5,14.5,0,0,1,1,5.8,15.5,15.5,0,0,0-1.5-5.6,20.7,20.7,0,0,0-3.1-4.8,21.9,21.9,0,0,0-4.2-3.8A18.7,18.7,0,0,0,1,9.2Z" fill="#ababab"/></g></g></svg>