<svg xmlns="http://www.w3.org/2000/svg" xmlns:xlink="http://www.w3.org/1999/xlink" viewBox="0 0 27.1 27.1"><defs><linearGradient id="linear-gradient" x1="7.38" y1="7.24" x2="20.77" y2="3.9" gradientUnits="userSpaceOnUse"><stop offset="0" stop-color="#ac0b78"/><stop offset="0.39" stop-color="#670856"/><stop offset="0.71" stop-color="#530750"/><stop offset="1" stop-color="#3f0440"/></linearGradient><radialGradient id="radial-gradient" cx="13.54" cy="5.82" r="7.51" gradientUnits="userSpaceOnUse"><stop offset="0"/><stop offset="0.01" stop-color="#060606"/><stop offset="0.17" stop-color="#474747"/><stop offset="0.33" stop-color="#7f7f7f"/><stop offset="0.48" stop-color="#adadad"/><stop offset="0.63" stop-color="#d1d1d1"/><stop offset="0.76" stop-color="#eaeaea"/><stop offset="0.89" stop-color="#fafafa"/><stop offset="0.98" stop-color="#fff"/></radialGradient><linearGradient id="linear-gradient-2" x1="19.25" y1="21.11" x2="7.9" y2="21.27" gradientUnits="userSpaceOnUse"><stop offset="0" stop-color="#402c69"/><stop offset="0.06" stop-color="#353875"/><stop offset="0.16" stop-color="#1a5894"/><stop offset="0.24" stop-color="#0076b1"/><stop offset="0.29" stop-color="#0f65a1"/><stop offset="0.4" stop-color="#2a4682"/><stop offset="0.5" stop-color="#3a3370"/><stop offset="0.57" stop-color="#402c69"/></linearGradient><radialGradient id="radial-gradient-2" cx="13.54" cy="21.19" r="7.67" xlink:href="#radial-gradient"/><linearGradient id="linear-gradient-3" x1="21.13" y1="8.2" x2="21.13" y2="16.99" gradientUnits="userSpaceOnUse"><stop offset="0.09" stop-color="#402c69"/><stop offset="0.19" stop-color="#3b326e"/><stop offset="0.32" stop-color="#2d427e"/><stop offset="0.47" stop-color="#175c98"/><stop offset="0.52" stop-color="#0c69a4"/><stop offset="0.65" stop-color="#165d99"/><stop offset="0.88" stop-color="#313e7a"/><stop offset="1" stop-color="#402c69"/></linearGradient><radialGradient id="radial-gradient-3" cx="21.13" cy="13.54" r="7.67" xlink:href="#radial-gradient"/><radialGradient id="radial-gradient-4" cx="10.88" cy="11.39" r="7.51" gradientUnits="userSpaceOnUse"><stop offset="0" stop-color="#0076b1"/><stop offset="0.27" stop-color="#0373ae"/><stop offset="0.49" stop-color="#0c69a4"/><stop offset="0.69" stop-color="#1a5893"/><stop offset="0.88" stop-color="#2f407c"/><stop offset="1" stop-color="#402c69"/></radialGradient><radialGradient id="radial-gradient-5" cx="5.94" cy="13.54" r="7.67" xlink:href="#radial-gradient"/></defs><title>Asset 16الوطني بنك</title><g id="Layer_2" data-name="Layer 2"><g id="Layer_1-2" data-name="Layer 1"><path d="M19.8,1.5,15.1,6.3V0H12.2V6.4L7.3,1.5A9.5,9.5,0,0,0,4.6,3.2l8.1,8a1.2,1.2,0,0,0,1.9,0l7.8-7.8A15.7,15.7,0,0,0,19.8,1.5Z" fill="url(#linear-gradient)"/><path d="M13.6,0V.3h1.2v6a.2.2,0,0,0,.2.2h.3l4.5-4.6a18.8,18.8,0,0,1,2.3,1.6l-7.7,7.7a1.2,1.2,0,0,1-1.6,0L5,3.3A10.7,10.7,0,0,1,7.2,1.8L12,6.6h.3c.1,0,.1-.1.1-.2V.3h1.2V0m0,0H12.2V6.4L7.3,1.5A9.5,9.5,0,0,0,4.6,3.2l8.1,8a1.1,1.1,0,0,0,.9.4,1.4,1.4,0,0,0,1-.4l7.8-7.8a15.7,15.7,0,0,0-2.6-1.9L15.1,6.3V0Z" fill="url(#radial-gradient)"/><path d="M19.8,25.5l-4.7-4.8V27H12.2V20.6l-4.9,5a12.7,12.7,0,0,1-2.7-1.8l8.1-8a1.2,1.2,0,0,1,1.9,0l7.8,7.8A11.5,11.5,0,0,1,19.8,25.5Z" stroke-miterlimit="10" stroke-width="0.25" fill="url(#linear-gradient-2)" stroke="url(#radial-gradient-2)"/><path d="M25.4,19.8l-4.7-4.7h6.2a14,14,0,0,0,0-2.9H20.6l4.9-4.9a12,12,0,0,0-1.8-2.6l-8,8a1.4,1.4,0,0,0,0,1.9l7.9,7.8A15.1,15.1,0,0,0,25.4,19.8Z" stroke-miterlimit="10" stroke-width="0.25" fill="url(#linear-gradient-3)" stroke="url(#radial-gradient-3)"/><path d="M1.7,19.8l4.7-4.7H.2a14,14,0,0,1,0-2.9H6.5L1.6,7.3A12,12,0,0,1,3.4,4.7l8,8a1.4,1.4,0,0,1,0,1.9L3.5,22.4A15.1,15.1,0,0,1,1.7,19.8Z" stroke-miterlimit="10" stroke-width="0.25" fill="url(#radial-gradient-4)" stroke="url(#radial-gradient-5)"/></g></g></svg>